# xmcd CD database file
#
# Track frame offsets:
#	150
#	14335
#	30245
#	45607
#	59487
#	74532
#	87987
#	102630
#	118180
#	135210
#	150062
#	164310
#	179880
#	195922
#	209320
#
# Disc length: 3015 seconds
#
# Revision: 0
# Processed by: cddbd v1.5.2PL0 Copyright (c) Steve Scherf et al.
# Submitted via: CDex 1.51
#
DISCID=c60bc50f
DTITLE=Evergreen Classsic Jazz Band and Uptown Lowdown Jazz Band - A Tribute To Fletcher Henderson
DYEAR=2001
DGENRE=Jazz
TTITLE0=Spanish Shawl
TTITLE1=Memphis Bound
TTITLE2=How Come You Do Me Like You Do
TTITLE3=Money Blues
TTITLE4=Shanghai Shuffle
TTITLE5=Henderson Stomp
TTITLE6=Stampede
TTITLE7=St. Louis Shuffle
TTITLE8=Tozo
TTITLE9=Deep Henderson
TTITLE10=What-Cha-Call-Em Blues
TTITLE11=Hop Off
TTITLE12=Chinatown
TTITLE13=Just Blues
TTITLE14=King Porter Stomp
EXTD=YEAR: 2001
EXTT0=
EXTT1=
EXTT2=
EXTT3=
EXTT4=
EXTT5=
EXTT6=
EXTT7=
EXTT8=
EXTT9=
EXTT10=
EXTT11=
EXTT12=
EXTT13=
EXTT14=
PLAYORDER=
